PathFileType	4	(X/Y/Z)	s01c0201.trc
DataRate	CameraRate	NumFrames	NumMarkers	Units	OrigDataRate	OrigDataStartFrame	OrigNumFrames
200	200	6	48	mm	200	1750	2000
Frame#	Time	racr			lacr			c7			jug			rlel			rdr			llel			ldr			s2			lic			ric			lasi			rasi			rpsi			lpsi			rgt			lgt			rth1			rth2			rth3			rth4			rlfc			rsh1			rsh2			rsh3			rsh4			rlmal			rmmal			rcal			rtoe			rmt5			lth1			lth2			lth4			lth3			llfc			lsh1			lsh2			lsh3			lsh4			llmal			lmmal			lcal			ltoe			lmt5			SBIKE			LBIKE			RBIKE			
		X1	Y1	Z1	X2	Y2	Z2	X3	Y3	Z3	X4	Y4	Z4	X5	Y5	Z5	X6	Y6	Z6	X7	Y7	Z7	X8	Y8	Z8	X9	Y9	Z9	X10	Y10	Z10	X11	Y11	Z11	X12	Y12	Z12	X13	Y13	Z13	X14	Y14	Z14	X15	Y15	Z15	X16	Y16	Z16	X17	Y17	Z17	X18	Y18	Z18	X19	Y19	Z19	X20	Y20	Z20	X21	Y21	Z21	X22	Y22	Z22	X23	Y23	Z23	X24	Y24	Z24	X25	Y25	Z25	X26	Y26	Z26	X27	Y27	Z27	X28	Y28	Z28	X29	Y29	Z29	X30	Y30	Z30	X31	Y31	Z31	X32	Y32	Z32	X33	Y33	Z33	X34	Y34	Z34	X35	Y35	Z35	X36	Y36	Z36	X37	Y37	Z37	X38	Y38	Z38	X39	Y39	Z39	X40	Y40	Z40	X41	Y41	Z41	X42	Y42	Z42	X43	Y43	Z43	X44	Y44	Z44	X45	Y45	Z45	X46	Y46	Z46	X47	Y47	Z47	X48	Y48	Z48	
1750	8.7500	518.219293	1239.945870	-89.561015	530.657147	1229.876649	-453.101176	507.216557	1354.111940	-273.622271	491.168001	1187.698089	-269.888230	460.208726	978.186202	28.559483	650.062822	867.988035	-77.853693	458.001977	974.172527	-578.782165	647.723357	873.918220	-462.404302	-20.960511	1149.236116	-273.069634	144.081231	1159.654638	-448.663103	127.552269	1160.939220	-112.180585	151.728259	1111.915554	-421.824334	160.566163	1115.869732	-140.986232	7.677298	1190.540278	-223.118369	4.444948	1192.923388	-327.256436	85.056044	1038.422326	-89.880844	107.929996	1035.165782	-468.660109	164.540179	928.127573	-73.022928	216.493045	863.925920	-78.943391	267.831003	790.147698	-91.531958	260.609257	895.877097	-93.940183	313.133850	683.665244	-109.995773	280.466799	570.719068	-72.145124	271.527230	486.329747	-74.004832	253.726825	399.420931	-81.182285	318.673235	479.788911	-112.432862	217.586716	277.065008	-97.277709	262.457754	289.140560	-172.620292	175.353967	254.483541	-147.807402	440.493518	202.643888	-142.878340	336.622245	182.291421	-68.696026	209.811149	968.114856	-464.670407	298.068190	953.475628	-465.401256	308.215825	1005.029625	-451.216557	378.778993	928.749902	-448.771632	455.831112	848.105675	-416.345642	359.816394	792.997561	-450.086786	294.066906	737.531811	-441.699633	226.795554	686.048913	-428.502825	330.418480	699.363207	-410.207346	129.387929	609.601987	-412.054924	157.540670	598.947153	-331.460507	72.548031	620.583847	-366.689160	244.354077	401.150620	-380.728631	157.010832	466.831491	-443.538549	-228.190383	891.348723	-253.370485	-21.362328	80.367868	-454.222243	-21.389108	80.327227	-54.110554	
1751	8.7550	518.927307	1239.968470	-91.381126	529.531803	1229.824634	-454.991463	506.858567	1354.059255	-275.452158	491.210790	1187.811147	-271.573828	460.477671	978.824354	28.107227	650.084414	868.047621	-77.798343	457.256408	973.116699	-579.068061	647.392031	874.004145	-462.358849	-20.899945	1148.536932	-272.570144	143.702966	1159.293921	-448.944399	128.335873	1160.323223	-112.679594	151.773695	1111.713032	-421.784986	160.527965	1114.997598	-141.020041	7.596221	1190.150155	-222.607782	4.442853	1192.066733	-326.877614	83.997009	1037.650420	-89.565409	107.525852	1036.230770	-469.137264	161.274058	926.641088	-71.466092	212.025964	861.338323	-77.216584	261.793858	786.683734	-89.204942	256.816413	892.584231	-91.698449	305.361537	678.985313	-106.854303	272.295414	566.452858	-69.389427	263.565882	482.017456	-71.436577	245.994149	395.074338	-79.002482	311.204105	475.638294	-109.282735	210.436810	271.832217	-96.594776	254.965592	284.458135	-170.593106	168.564241	251.096676	-146.657993	432.525891	194.713408	-143.090917	328.447690	175.535459	-68.712312	210.573334	970.959310	-464.814248	299.151641	958.674722	-466.192015	307.867643	1010.456896	-451.676000	380.652142	936.224306	-449.551057	460.680186	857.727199	-417.443790	365.763352	802.107112	-449.859890	300.535237	746.060768	-441.683377	233.795600	693.607828	-428.119266	337.282192	708.119275	-410.311707	136.746448	615.934220	-411.938999	165.272585	605.914033	-331.096422	79.703079	626.577954	-366.384739	253.290773	408.931300	-381.290135	165.229629	474.030036	-443.213962	-228.217046	891.353342	-253.319036	-21.374154	80.349552	-454.215302	-21.391937	80.300656	-54.101932	
1752	8.7600	519.752670	1240.065061	-93.185948	528.411673	1229.730207	-456.901098	506.574635	1354.027039	-277.299632	491.210541	1187.915549	-273.378937	460.733374	979.639536	27.631214	650.096945	868.136457	-77.741525	456.410231	972.251323	-579.378364	647.059082	874.112095	-462.408038	-20.899244	1147.932611	-272.002132	143.416883	1159.116719	-449.301198	129.194941	1159.758959	-113.141139	151.786542	1111.617987	-421.766311	160.487772	1114.396128	-141.023270	7.497342	1189.852123	-222.131905	4.390750	1191.345707	-326.457522	82.929670	1036.955630	-89.280323	107.120996	1037.073394	-469.408164	158.036949	925.482002	-69.921886	207.555624	859.083254	-75.147157	255.992651	783.670647	-86.468155	252.909095	890.140879	-89.025013	297.932332	674.918969	-103.625654	264.176106	562.794144	-66.598728	255.567249	478.291052	-68.907309	237.998423	391.436356	-76.759906	303.641198	472.066386	-105.800663	203.582959	268.600965	-95.307646	247.333902	280.493653	-168.513843	161.500962	248.280365	-145.329623	424.237655	187.372753	-143.238583	320.360186	169.745133	-68.072306	211.043650	973.462333	-465.025023	299.899708	963.647686	-466.941933	307.437047	1015.707080	-452.419449	382.098288	943.340349	-450.426858	465.586594	867.552097	-417.764464	371.137438	811.969933	-450.573522	306.675570	754.341537	-441.588745	240.591829	701.102911	-428.082765	343.949296	716.681630	-410.555372	143.985980	621.669479	-411.815112	172.887861	612.333687	-330.998473	86.720447	631.767582	-366.178051	262.010714	415.338254	-380.328732	173.647655	479.957740	-442.996241	-228.241838	891.371529	-253.232141	-21.364513	80.372908	-454.190804	-21.405521	80.317744	-54.082889	
1753	8.7650	520.514079	1240.134245	-95.171854	527.280238	1229.564312	-458.897367	506.416294	1353.926355	-279.212722	491.177262	1187.869241	-275.245718	460.961056	980.288397	27.155194	650.121611	868.227979	-77.664448	455.488544	971.458871	-579.723563	646.694517	874.212364	-462.462892	-20.930137	1147.442641	-271.597949	143.288908	1159.090090	-449.571115	129.988067	1159.334055	-113.594122	151.765699	1111.628127	-421.765459	160.377347	1113.896272	-141.074457	7.386669	1189.595930	-221.753239	4.291532	1190.778015	-326.022603	81.817802	1036.321238	-88.824073	106.659885	1037.697543	-469.608739	154.845684	924.648298	-68.297027	203.204041	857.413227	-72.968365	250.410965	781.093232	-83.623864	249.030100	887.079975	-87.302532	290.717203	671.521404	-100.307968	256.296844	559.744626	-63.814237	247.516762	475.218069	-66.286697	229.925076	388.436076	-74.550096	295.828734	468.884766	-102.338745	196.284522	265.559052	-93.999448	239.619206	277.238184	-166.431317	153.609447	247.237862	-142.334679	415.608120	180.431867	-143.268542	311.796789	164.399485	-67.620856	211.359972	975.736409	-465.229590	300.442637	968.169609	-467.422957	306.836431	1020.598460	-453.073371	383.233296	950.035327	-451.180256	469.643429	877.303227	-418.256612	376.504815	820.347021	-450.324297	312.460113	762.378087	-441.603303	247.135279	708.298686	-428.092341	350.332553	725.115930	-410.960084	151.087764	626.764025	-411.694294	180.153516	618.202973	-330.553934	93.548215	636.173226	-365.902928	271.753009	422.099349	-380.303379	182.674376	485.634736	-442.816020	-228.276601	891.366169	-253.157221	-21.389907	80.386975	-454.171671	-21.417677	80.312541	-54.071108	
1754	8.7700	521.351721	1240.063018	-97.067432	526.123743	1229.295411	-460.891178	506.317263	1353.808354	-281.110521	491.093440	1187.717695	-277.033661	461.178041	981.097714	26.718827	650.150773	868.339577	-77.621505	454.581261	970.583620	-580.072637	646.651746	874.547229	-462.366229	-21.138264	1147.042718	-271.479705	143.234138	1159.172765	-449.781709	130.772886	1158.958938	-114.156172	151.712732	1111.746079	-421.775281	160.248896	1113.555101	-141.099578	7.290755	1189.387442	-221.457650	4.161276	1190.364798	-325.594898	80.690570	1035.764081	-88.358263	106.274632	1038.239757	-469.691587	151.640112	924.090703	-66.673587	198.926415	856.040178	-70.657702	245.036935	778.920375	-80.637059	245.232810	885.185509	-84.174072	283.863188	668.903823	-96.888220	248.640455	557.173481	-61.045519	239.602726	472.719355	-63.754277	221.868956	385.906209	-72.375405	288.483196	466.186742	-98.935537	189.099608	262.976966	-92.478305	231.877978	274.682771	-164.394358	146.228365	246.458216	-140.731975	406.637471	173.872742	-143.467542	302.952289	159.746918	-67.206580	211.536907	977.779626	-465.249198	300.723637	972.348751	-467.777467	305.974395	1025.011243	-453.776383	384.084313	956.034567	-451.323891	473.277373	886.655667	-418.789939	381.182127	828.960890	-450.219607	317.855338	770.281618	-441.781103	253.348618	715.169763	-428.094139	356.358069	733.146034	-411.400692	158.041835	631.174539	-411.588096	187.336740	623.522921	-330.366168	99.978442	639.534574	-365.565876	281.962467	428.787895	-380.325980	191.900783	490.820109	-442.778225	-228.327606	891.362246	-253.058631	-21.391272	80.411243	-454.170063	-21.421603	80.299781	-54.055572	
1755	8.7750	522.132776	1240.046200	-99.047041	524.984644	1229.005867	-462.926762	506.381061	1353.612854	-283.020005	491.021746	1187.579265	-278.936258	461.410584	981.768691	26.251939	650.191322	868.457650	-77.597955	453.618781	969.832668	-580.438323	645.990514	874.454941	-462.795260	-21.322141	1146.818551	-271.364168	143.178759	1159.424876	-449.965386	131.327337	1158.820291	-114.608972	151.625189	1111.983145	-421.788077	160.050496	1113.371632	-141.032261	7.188462	1189.244264	-221.201965	4.004236	1190.124527	-325.197038	79.499864	1035.534895	-87.909323	106.036682	1038.574514	-469.646950	148.458749	923.817389	-65.052443	194.822385	855.077025	-68.382292	239.807716	777.255424	-77.063971	241.787962	883.429072	-81.725539	277.403939	666.784766	-93.563421	241.169845	555.172354	-58.382760	231.875402	470.782170	-61.355285	213.945205	383.993209	-70.359913	281.357084	463.967593	-95.650348	181.392281	261.602498	-91.441992	224.166726	272.818514	-162.451810	138.789289	246.205590	-139.235026	397.425809	168.045250	-143.555419	293.842776	155.699359	-66.791042	211.610423	979.722846	-465.076985	300.876522	976.190029	-468.048777	304.932321	1028.807302	-453.798971	384.659521	961.750238	-451.849359	477.525154	896.250579	-418.950526	385.166725	836.988402	-450.643229	322.899169	777.791030	-441.752925	259.281137	721.513228	-427.783804	362.119477	740.819077	-412.082958	164.843148	634.859529	-411.508553	190.334722	629.813899	-325.011685	106.708526	642.535395	-365.435480	292.312600	434.815217	-380.351747	201.189228	495.435837	-442.653721	-228.361506	891.384130	-252.961174	-21.407492	80.401661	-454.190981	-21.414401	80.299049	-54.045468	
